<mxfile host="app.diagrams.net" modified="2024-07-05T03:38:03.491Z" agent="Mozilla/5.0 (Macintosh; Intel Mac OS X 10_15_7) AppleWebKit/537.36 (KHTML, like Gecko) Chrome/126.0.0.0 Safari/537.36" etag="sF6ypVlrHJw7I3wzIvRV" version="24.6.4" type="github">
  <diagram name="Page-1" id="-Q0_6SZRmef311E2Kl2w">
    <mxGraphModel dx="2447" dy="1381" grid="1" gridSize="10" guides="1" tooltips="1" connect="1" arrows="1" fold="1" page="1" pageScale="1" pageWidth="1169" pageHeight="827" math="0" shadow="0">
      <root>
        <mxCell id="0" />
        <mxCell id="1" parent="0" />
        <mxCell id="7MEy_GG3foN_npgPZCAM-7" style="edgeStyle=orthogonalEdgeStyle;rounded=0;orthogonalLoop=1;jettySize=auto;html=1;exitX=1;exitY=0;exitDx=0;exitDy=0;entryX=0;entryY=0.5;entryDx=0;entryDy=0;" edge="1" parent="1" source="7MEy_GG3foN_npgPZCAM-1" target="7MEy_GG3foN_npgPZCAM-2">
          <mxGeometry relative="1" as="geometry" />
        </mxCell>
        <mxCell id="7MEy_GG3foN_npgPZCAM-8" style="edgeStyle=orthogonalEdgeStyle;rounded=0;orthogonalLoop=1;jettySize=auto;html=1;exitX=1;exitY=0.5;exitDx=0;exitDy=0;" edge="1" parent="1" source="7MEy_GG3foN_npgPZCAM-1" target="7MEy_GG3foN_npgPZCAM-3">
          <mxGeometry relative="1" as="geometry" />
        </mxCell>
        <mxCell id="7MEy_GG3foN_npgPZCAM-11" style="edgeStyle=orthogonalEdgeStyle;rounded=0;orthogonalLoop=1;jettySize=auto;html=1;exitX=1;exitY=1;exitDx=0;exitDy=0;entryX=0;entryY=0.5;entryDx=0;entryDy=0;" edge="1" parent="1" source="7MEy_GG3foN_npgPZCAM-1" target="7MEy_GG3foN_npgPZCAM-4">
          <mxGeometry relative="1" as="geometry" />
        </mxCell>
        <mxCell id="7MEy_GG3foN_npgPZCAM-1" value="Traefik" style="shape=dataStorage;whiteSpace=wrap;html=1;fixedSize=1;" vertex="1" parent="1">
          <mxGeometry x="240" y="370" width="100" height="80" as="geometry" />
        </mxCell>
        <mxCell id="7MEy_GG3foN_npgPZCAM-2" value="dns.nsd5.ciscolabs.com" style="rounded=1;whiteSpace=wrap;html=1;" vertex="1" parent="1">
          <mxGeometry x="420" y="270" width="170" height="60" as="geometry" />
        </mxCell>
        <mxCell id="7MEy_GG3foN_npgPZCAM-3" value="ipam.nsd5.ciscolabs.com" style="rounded=1;whiteSpace=wrap;html=1;" vertex="1" parent="1">
          <mxGeometry x="420" y="380" width="170" height="60" as="geometry" />
        </mxCell>
        <mxCell id="7MEy_GG3foN_npgPZCAM-4" value="mysql.nsd5.ciscolabs.com" style="rounded=1;whiteSpace=wrap;html=1;" vertex="1" parent="1">
          <mxGeometry x="420" y="490" width="170" height="60" as="geometry" />
        </mxCell>
      </root>
    </mxGraphModel>
  </diagram>
</mxfile>
